<?xml version="1.0" encoding="UTF-8"?>
<svg xmlns="http://www.w3.org/2000/svg" width="1080" height="680" viewBox="0 0 1080 680" font-family="Segoe UI, Calibri, Arial, sans-serif">
  <rect width="1080" height="680" fill="#FFFFFF"/>
  <text x="540" y="40" font-size="22" font-weight="bold" fill="#2E5496" text-anchor="middle">StockMaster — Domain Model (UML Class Diagram)</text>
  <text x="540" y="64" font-size="13" fill="#666" text-anchor="middle">JPA entity relationships</text>
  <rect x="40" y="250" width="210" height="112" rx="4" fill="#FFFFFF" stroke="#2E5496" stroke-width="1.5"/><rect x="40" y="250" width="210" height="24" rx="4" fill="#2E5496"/><rect x="40" y="268" width="210" height="6" fill="#2E5496"/><text x="145" y="266" font-family="Segoe UI, Calibri, Arial, sans-serif" font-size="14" font-weight="bold" fill="#FFFFFF" text-anchor="middle">Supplier</text><text x="48" y="294" font-family="Consolas, monospace" font-size="11.5" fill="#1a1a1a">- id: Long</text><text x="48" y="312" font-family="Consolas, monospace" font-size="11.5" fill="#1a1a1a">- name: String</text><text x="48" y="330" font-family="Consolas, monospace" font-size="11.5" fill="#1a1a1a">- contactEmail: String</text><text x="48" y="348" font-family="Consolas, monospace" font-size="11.5" fill="#1a1a1a">- phone: String</text><rect x="330" y="220" width="220" height="148" rx="4" fill="#FFFFFF" stroke="#2E5496" stroke-width="1.5"/><rect x="330" y="220" width="220" height="24" rx="4" fill="#2E5496"/><rect x="330" y="238" width="220" height="6" fill="#2E5496"/><text x="440" y="236" font-family="Segoe UI, Calibri, Arial, sans-serif" font-size="14" font-weight="bold" fill="#FFFFFF" text-anchor="middle">Product</text><text x="338" y="264" font-family="Consolas, monospace" font-size="11.5" fill="#1a1a1a">- id: Long</text><text x="338" y="282" font-family="Consolas, monospace" font-size="11.5" fill="#1a1a1a">- name: String</text><text x="338" y="300" font-family="Consolas, monospace" font-size="11.5" fill="#1a1a1a">- sku: String</text><text x="338" y="318" font-family="Consolas, monospace" font-size="11.5" fill="#1a1a1a">- price: double</text><text x="338" y="336" font-family="Consolas, monospace" font-size="11.5" fill="#1a1a1a">- category: String</text><text x="338" y="354" font-family="Consolas, monospace" font-size="11.5" fill="#1a1a1a">- stockQuantity: int</text><rect x="630" y="240" width="200" height="94" rx="4" fill="#FFFFFF" stroke="#2E5496" stroke-width="1.5"/><rect x="630" y="240" width="200" height="24" rx="4" fill="#2E5496"/><rect x="630" y="258" width="200" height="6" fill="#2E5496"/><text x="730" y="256" font-family="Segoe UI, Calibri, Arial, sans-serif" font-size="14" font-weight="bold" fill="#FFFFFF" text-anchor="middle">OrderItem</text><text x="638" y="284" font-family="Consolas, monospace" font-size="11.5" fill="#1a1a1a">- id: Long</text><text x="638" y="302" font-family="Consolas, monospace" font-size="11.5" fill="#1a1a1a">- quantity: int</text><text x="638" y="320" font-family="Consolas, monospace" font-size="11.5" fill="#1a1a1a">- unitPrice: double</text><rect x="630" y="430" width="220" height="148" rx="4" fill="#FFFFFF" stroke="#2E5496" stroke-width="1.5"/><rect x="630" y="430" width="220" height="24" rx="4" fill="#2E5496"/><rect x="630" y="448" width="220" height="6" fill="#2E5496"/><text x="740" y="446" font-family="Segoe UI, Calibri, Arial, sans-serif" font-size="14" font-weight="bold" fill="#FFFFFF" text-anchor="middle">Order</text><text x="638" y="474" font-family="Consolas, monospace" font-size="11.5" fill="#1a1a1a">- id: Long</text><text x="638" y="492" font-family="Consolas, monospace" font-size="11.5" fill="#1a1a1a">- createdAt: LocalDateTime</text><text x="638" y="510" font-family="Consolas, monospace" font-size="11.5" fill="#1a1a1a">- status: OrderStatus</text><text x="638" y="528" font-family="Consolas, monospace" font-size="11.5" fill="#1a1a1a">- customerName: String</text><text x="638" y="546" font-family="Consolas, monospace" font-size="11.5" fill="#1a1a1a">- totalAmount: double</text><text x="638" y="564" font-family="Consolas, monospace" font-size="11.5" fill="#1a1a1a">- version: Long</text><rect x="40" y="470" width="230" height="94" rx="4" fill="#FFFFFF" stroke="#2E5496" stroke-width="1.5"/><rect x="40" y="470" width="230" height="24" rx="4" fill="#2E5496"/><rect x="40" y="488" width="230" height="6" fill="#2E5496"/><text x="155" y="486" font-family="Segoe UI, Calibri, Arial, sans-serif" font-size="14" font-weight="bold" fill="#FFFFFF" text-anchor="middle">Warehouse</text><text x="48" y="514" font-family="Consolas, monospace" font-size="11.5" fill="#1a1a1a">- id: Long</text><text x="48" y="532" font-family="Consolas, monospace" font-size="11.5" fill="#1a1a1a">- location: String</text><text x="48" y="550" font-family="Consolas, monospace" font-size="11.5" fill="#1a1a1a">- stockLevels: Map&lt;String,Integer&gt;</text><rect x="890" y="430" width="165" height="144" rx="4" fill="#FFFFFF" stroke="#2E5496" stroke-width="1.5"/><rect x="890" y="430" width="165" height="38" rx="4" fill="#2E5496"/><rect x="890" y="462" width="165" height="6" fill="#2E5496"/><text x="972.5" y="446" font-family="Segoe UI, Calibri, Arial, sans-serif" font-size="11" font-style="italic" fill="#FFFFFF" text-anchor="middle">«enumeration»</text><text x="972.5" y="461" font-family="Segoe UI, Calibri, Arial, sans-serif" font-size="14" font-weight="bold" fill="#FFFFFF" text-anchor="middle">OrderStatus</text><text x="898" y="488" font-family="Consolas, monospace" font-size="11.5" fill="#1a1a1a">PENDING</text><text x="898" y="506" font-family="Consolas, monospace" font-size="11.5" fill="#1a1a1a">CONFIRMED</text><text x="898" y="524" font-family="Consolas, monospace" font-size="11.5" fill="#1a1a1a">SHIPPED</text><text x="898" y="542" font-family="Consolas, monospace" font-size="11.5" fill="#1a1a1a">DELIVERED</text><text x="898" y="560" font-family="Consolas, monospace" font-size="11.5" fill="#1a1a1a">CANCELLED</text><line x1="250" y1="306" x2="330" y2="294" stroke="#555" stroke-width="1.3"/><polygon points="250,306 258,300 266,306 258,312" fill="#fff" stroke="#555" stroke-width="1.2"/><text x="256" y="300" font-family="Segoe UI, Calibri, Arial, sans-serif" font-size="11" fill="#333">1</text><text x="324" y="288" font-family="Segoe UI, Calibri, Arial, sans-serif" font-size="11" fill="#333" text-anchor="end">0..*</text><text x="290" y="316" font-family="Segoe UI, Calibri, Arial, sans-serif" font-size="11" font-style="italic" fill="#666" text-anchor="middle">supplies</text><line x1="550" y1="294" x2="630" y2="287" stroke="#555" stroke-width="1.3"/><text x="556" y="288" font-family="Segoe UI, Calibri, Arial, sans-serif" font-size="11" fill="#333">1</text><text x="624" y="281" font-family="Segoe UI, Calibri, Arial, sans-serif" font-size="11" fill="#333" text-anchor="end">0..*</text><text x="590" y="306.5" font-family="Segoe UI, Calibri, Arial, sans-serif" font-size="11" font-style="italic" fill="#666" text-anchor="middle">ordered as</text><line x1="730" y1="334" x2="740" y2="430" stroke="#555" stroke-width="1.3"/><text x="736" y="328" font-family="Segoe UI, Calibri, Arial, sans-serif" font-size="11" fill="#333">0..*</text><text x="734" y="424" font-family="Segoe UI, Calibri, Arial, sans-serif" font-size="11" fill="#333" text-anchor="end">1</text><line x1="850" y1="504" x2="890" y2="502" stroke="#555" stroke-width="1.3"/>
</svg>